<svg xmlns="http://www.w3.org/2000/svg" viewBox="0 0 64 64" role="img" aria-labelledby="titulo">
  <title id="titulo">Jamon 5 Jotas</title>
  <rect width="64" height="64" rx="14" fill="#1e1e1e"/>
  <path d="M27 8c4 1 8 3 11 7 5 6 7 13 8 21 1 8 4 15 9 20l-7 4c-7-4-11-11-13-20-2-8-4-15-9-20-3-3-6-5-10-6z" fill="#8f1d2c"/>
  <path d="M28 12c4 2 7 5 9 9 3 6 4 13 5 20 1 7 3 12 7 16l-4 2c-5-5-8-11-9-18-1-8-3-15-7-20-2-3-5-5-8-6z" fill="#d85b55"/>
  <path d="M22 9c-2 2-3 5-2 8l5 2c1-3 3-5 5-7z" fill="#e4b36a"/>
  <circle cx="19" cy="8" r="3" fill="#f2cf8d"/>
  <text x="10" y="56" fill="#f2cf8d" font-family="Arial, sans-serif" font-size="11" font-weight="700">5J</text>
</svg>
